<svg width="501" height="500" fill="none" xmlns="http://www.w3.org/2000/svg"><path d="M430.402 413.133c-8.437 27.808-19.287 55.556-33.186 81.966-.308.595-.62 1.178-.935 1.77l-34.411-12.25c.198-.561.415-1.188.648-1.873 13.879-40.393 97.616-286.496 93.857-335.019.405 3.971 13.504 135.415-25.973 265.406Z" fill="#E6E6E6"/><path d="M403.855 497.463a70.004 70.004 0 0 1-1.431 1.594l-25.814-9.191c.349-.475.755-1.035 1.223-1.668 7.645-10.507 30.374-41.965 52.569-75.065 23.851-35.57 47.09-73.03 50.346-88.422-.654 3.5-21.022 110.051-76.893 172.752Z" fill="#E6E6E6"/><path d="M416.758 87.69c-.01 0-.019.002-.028.003V25.42c0-6.742-2.38-13.208-6.617-17.976C405.877 2.678 400.132 0 394.141 0H220.9c-5.99 0-11.736 2.678-15.972 7.445-4.236 4.768-6.616 11.233-6.616 17.976v31.923a1.74 1.74 0 0 0-1.269.618 2.201 2.201 0 0 0-.522 1.44v15.812c0 .539.188 1.055.522 1.44.335.384.791.606 1.269.617v16.565h-.092c-.241 0-.479.054-.701.157a1.827 1.827 0 0 0-.595.447c-.17.192-.305.419-.397.67a2.29 2.29 0 0 0-.139.788v30.577c0 .271.047.539.139.789.092.251.227.478.397.669.17.192.372.344.595.447.222.104.46.157.701.157h.092v12.144h-.029c-.24 0-.479.054-.701.157a1.847 1.847 0 0 0-.594.447 2.089 2.089 0 0 0-.398.669 2.296 2.296 0 0 0-.139.789v30.877c0 .27.047.539.139.789.092.25.227.477.398.669.17.191.372.343.594.447.222.103.461.157.701.157h.029v298.454c0 6.742 2.38 13.208 6.616 17.975 4.236 4.768 9.982 7.446 15.972 7.446h173.241c5.991 0 11.736-2.678 15.972-7.446 4.237-4.767 6.617-11.233 6.617-17.975V148.242c.009 0 .018.003.028.003.428 0 .853-.094 1.249-.279a3.266 3.266 0 0 0 1.058-.796c.303-.341.543-.746.707-1.191.164-.445.249-.923.249-1.405V91.361c0-.974-.344-1.908-.956-2.596-.612-.689-1.442-1.076-2.307-1.076Z" fill="#3F3D56"/><path d="M403.242 32.536v434.478c-.001 5.176-1.83 10.14-5.083 13.8s-7.665 5.716-12.265 5.716H229.147c-4.6 0-9.011-2.056-12.264-5.716-3.254-3.66-5.082-8.624-5.084-13.8V32.536c0-5.178 1.828-10.144 5.081-13.805 3.254-3.661 7.666-5.718 12.267-5.718h23.456v3.426c.002 4.263 1.507 8.35 4.186 11.365 2.678 3.015 6.311 4.709 10.099 4.71h79.747c3.783-.009 7.408-1.707 10.08-4.72 2.672-3.014 4.173-7.098 4.173-11.355v-3.39h25.006c4.596 0 9.003 2.052 12.256 5.705 3.252 3.654 5.084 8.61 5.092 13.782Z" fill="#fff"/><path d="M149.065 243.793a6.12 6.12 0 0 0-2.913-.499 6.261 6.261 0 0 0-2.827.935 7.123 7.123 0 0 0-2.21 2.193 8.165 8.165 0 0 0-1.179 3.04l-55.857 34.179L93.9 296.08l51.874-37.464c1.66.238 3.34-.217 4.721-1.28 1.382-1.063 2.369-2.659 2.775-4.486a8.568 8.568 0 0 0-.574-5.428c-.775-1.669-2.067-2.96-3.631-3.629ZM134.819 489.714l6.96-5.066-14.052-32.624-10.273 7.478 17.365 30.212Z" fill="#FFB8B8"/><path d="m159.383 482.15-21.875 15.923-5.467-9.511 13.739-10.001c2.158-1.571 4.782-2.113 7.295-1.506 2.512.606 4.708 2.311 6.104 4.739l.204.356Z" fill="#2F2E41"/><path d="M56.723 490.893h8.29l3.944-35.982H56.723v35.982Z" fill="#FFB8B8"/><path d="M81 499.555H54.946v-11.328H71.31c1.272 0 2.532.282 3.708.83a9.695 9.695 0 0 1 3.143 2.364 11.08 11.08 0 0 1 2.1 3.538c.488 1.322.738 2.74.738 4.172v.424Z" fill="#2F2E41"/><path d="M246.906 70.508h-17.089c-.42 0-.822-.188-1.119-.521a1.903 1.903 0 0 1-.463-1.26c0-.472.167-.925.463-1.259a1.499 1.499 0 0 1 1.119-.521h17.089a1.5 1.5 0 0 1 1.119.521c.296.334.463.787.463 1.26 0 .472-.167.925-.463 1.259a1.5 1.5 0 0 1-1.119.521ZM246.906 75.494h-17.089c-.42 0-.822-.188-1.119-.522a1.903 1.903 0 0 1-.463-1.259c0-.472.167-.925.463-1.259a1.499 1.499 0 0 1 1.119-.521h17.089a1.5 1.5 0 0 1 1.119.521c.296.334.463.787.463 1.26 0 .472-.167.924-.463 1.258a1.5 1.5 0 0 1-1.119.522ZM246.906 80.48h-17.089c-.42 0-.822-.188-1.119-.522a1.903 1.903 0 0 1-.463-1.259c0-.472.167-.925.463-1.26a1.499 1.499 0 0 1 1.119-.52h17.089a1.5 1.5 0 0 1 1.119.52c.296.335.463.788.463 1.26s-.167.925-.463 1.26a1.5 1.5 0 0 1-1.119.52ZM379.369 75.53h-.576l-.222-.207c.728-.976 1.127-2.21 1.127-3.483a5.773 5.773 0 0 0-.808-2.94c-.521-.868-1.26-1.542-2.122-1.938a4.223 4.223 0 0 0-2.722-.285c-.913.21-1.749.72-2.404 1.465a5.544 5.544 0 0 0-1.276 2.72 5.915 5.915 0 0 0 .282 3.06c.361.967.969 1.79 1.746 2.368a4.34 4.34 0 0 0 2.62.878c1.129-.01 2.22-.457 3.089-1.268l.215.206v.656l3.633 4.095 1.089-1.225-3.671-4.103Zm-4.355 0a3.02 3.02 0 0 1-1.823-.614 3.62 3.62 0 0 1-1.213-1.65 4.115 4.115 0 0 1-.194-2.132 3.862 3.862 0 0 1 .89-1.893 3.189 3.189 0 0 1 1.676-1.017 2.94 2.94 0 0 1 1.895.202c.6.276 1.113.747 1.476 1.352.362.605.557 1.318.559 2.048v.014a4.05 4.05 0 0 1-.241 1.405 3.723 3.723 0 0 1-.7 1.195 3.274 3.274 0 0 1-1.053.802 2.953 2.953 0 0 1-1.246.287h-.026Z" fill="#3F3D56"/><path d="M281.719 136.036H251.02c-1.847 0-3.618-.826-4.923-2.295-1.306-1.469-2.039-3.462-2.039-5.54s.733-4.071 2.039-5.54c1.305-1.469 3.076-2.295 4.923-2.295h30.699c1.847 0 3.618.826 4.923 2.295 1.306 1.469 2.039 3.462 2.039 5.54s-.733 4.071-2.039 5.54c-1.305 1.469-3.076 2.295-4.923 2.295Z" fill="#6C63FF"/><path d="M375.703 153.13H247.855c-1.007 0-1.973-.45-2.685-1.252-.712-.801-1.112-1.888-1.112-3.022 0-1.133.4-2.22 1.112-3.021.712-.802 1.678-1.252 2.685-1.252h127.848c1.007 0 1.973.45 2.685 1.252.713.801 1.113 1.888 1.113 3.021 0 1.134-.4 2.221-1.113 3.022-.712.802-1.678 1.252-2.685 1.252ZM294.817 170.224h-46.962c-1.007 0-1.973-.45-2.685-1.251-.712-.802-1.112-1.889-1.112-3.022 0-1.134.4-2.221 1.112-3.022.712-.802 1.678-1.252 2.685-1.252h46.962c1.007 0 1.973.45 2.685 1.252.713.801 1.113 1.888 1.113 3.022 0 1.133-.4 2.22-1.113 3.022-.712.801-1.678 1.251-2.685 1.251Z" fill="#E6E6E6"/><path d="M281.719 325.497H251.02c-1.847 0-3.618-.826-4.923-2.295-1.306-1.469-2.039-3.462-2.039-5.54s.733-4.071 2.039-5.54c1.305-1.47 3.076-2.295 4.923-2.295h30.699c1.847 0 3.618.825 4.923 2.295 1.306 1.469 2.039 3.462 2.039 5.54s-.733 4.071-2.039 5.54c-1.305 1.469-3.076 2.295-4.923 2.295Z" fill="#6C63FF"/><path d="M375.703 342.591H247.855c-1.007 0-1.973-.45-2.685-1.252-.712-.801-1.112-1.888-1.112-3.022 0-1.133.4-2.22 1.112-3.022.712-.801 1.678-1.251 2.685-1.251h127.848c1.007 0 1.973.45 2.685 1.251.713.802 1.113 1.889 1.113 3.022 0 1.134-.4 2.221-1.113 3.022-.712.802-1.678 1.252-2.685 1.252ZM294.817 359.685h-46.962c-1.007 0-1.973-.45-2.685-1.252-.712-.801-1.112-1.888-1.112-3.022 0-1.133.4-2.22 1.112-3.021.712-.802 1.678-1.252 2.685-1.252h46.962c1.007 0 1.973.45 2.685 1.252.713.801 1.113 1.888 1.113 3.021 0 1.134-.4 2.221-1.113 3.022-.712.802-1.678 1.252-2.685 1.252Z" fill="#E6E6E6"/><path d="M281.719 413.104H251.02c-1.847 0-3.618-.825-4.923-2.294-1.306-1.47-2.039-3.462-2.039-5.54s.733-4.071 2.039-5.54c1.305-1.47 3.076-2.295 4.923-2.295h30.699c1.847 0 3.618.825 4.923 2.295 1.306 1.469 2.039 3.462 2.039 5.54s-.733 4.07-2.039 5.54c-1.305 1.469-3.076 2.294-4.923 2.294Z" fill="#6C63FF"/><path d="M375.703 430.199H247.855c-1.007 0-1.973-.451-2.685-1.252-.712-.802-1.112-1.889-1.112-3.022 0-1.133.4-2.22 1.112-3.022.712-.801 1.678-1.251 2.685-1.251h127.848c1.007 0 1.973.45 2.685 1.251.713.802 1.113 1.889 1.113 3.022 0 1.133-.4 2.22-1.113 3.022-.712.801-1.678 1.252-2.685 1.252ZM294.817 447.293h-46.962c-1.007 0-1.973-.45-2.685-1.252-.712-.801-1.112-1.888-1.112-3.022 0-1.133.4-2.22 1.112-3.022.712-.801 1.678-1.251 2.685-1.251h46.962c1.007 0 1.973.45 2.685 1.251.713.802 1.113 1.889 1.113 3.022 0 1.134-.4 2.221-1.113 3.022-.712.802-1.678 1.252-2.685 1.252Z" fill="#E6E6E6"/><path d="M393.741 280.98H149.437c-1.426-.001-2.793-.64-3.802-1.775-1.008-1.135-1.576-2.674-1.577-4.279v-74.787c.001-1.605.569-3.144 1.577-4.279 1.009-1.135 2.376-1.773 3.802-1.775h244.304c1.426.002 2.794.64 3.802 1.775 1.009 1.135 1.576 2.674 1.578 4.279v74.787c-.002 1.605-.569 3.144-1.578 4.279-1.008 1.135-2.376 1.774-3.802 1.775Z" fill="#6C63FF"/><path d="M61.61 369.956c2.335 18.44-10.032 100.136-8.659 100.129l17.76-.107c.633-1.367 8.784-45.449 11.341-52.522 3.57-9.815 7.171-19.751 8.576-30.235 1.323-9.843.671-19.872-.19-29.78a2.1 2.1 0 0 0-.066-.878 1.922 1.922 0 0 0-.416-.748 1.647 1.647 0 0 0-.672-.453 1.498 1.498 0 0 0-.782-.057l-23.83-1.382c-4.91-.285-6.075-1.496-5.329 3.932.52 4.052 1.747 7.998 2.266 12.101Z" fill="#2F2E41"/><path d="M66.293 325.119c-4.842 7.835-9.918 16.852-8.31 26.233 1.221 7.122 6.044 12.642 10.595 17.806 18.19 20.556 54.057 111.255 54.057 111.255 17.309-12.465-.413.356 17.152-12.821-1.557-.135-36.931-143.235-39.861-143.427-11.855-.883-22.082-2.187-33.633.954Z" fill="#2F2E41"/><path d="M85.444 250.546c-2.46-2.468-19.742-10.079-19.742-10.079a2.622 2.622 0 0 0-.955.032c-.984.279-1.432 1.655-1.222 2.767.21 1.112-1.514 19.391-1.958 27.703-.778 14.507 6.813 47.367 6.746 48.372-.26 3.584-1.654 6.943-3.929 9.467.591.826 38.143 2.483 40.697 3.46.515-.736-2.908-52.858-3.065-55.803-.263-4.47-13.326-22.534-16.572-25.919Z" fill="#E6E6E6"/><path d="M58.66 363.644a7.021 7.021 0 0 0 2.292-2.085 8.087 8.087 0 0 0 1.291-2.981 8.586 8.586 0 0 0 .05-3.315 8.146 8.146 0 0 0-1.201-3.028l15.844-98.677-14.785-.219-11.003 97.578c-1.275 1.22-2.108 2.924-2.342 4.789-.233 1.865.15 3.761 1.075 5.33.926 1.569 2.331 2.701 3.95 3.181 1.618.481 3.336.277 4.83-.573Z" fill="#FFB8B8"/><path d="M58.533 260.881c-.616.05-1.23-.13-1.746-.513-.88-.848 6.297-13.818 7.715-14.01 4.614-.599 9.36-.798 13.835.605 4.475 1.403 8.684 4.594 10.684 9.316.835 1.966-5.222 11.859-7.975 10.406-3.297-1.737-18.17-5.683-22.513-5.804Z" fill="#E6E6E6"/><path d="M74.818 239.404c9.172 0 16.607-8.368 16.607-18.689 0-10.322-7.435-18.689-16.607-18.689-9.171 0-16.606 8.367-16.606 18.689 0 10.321 7.435 18.689 16.606 18.689Z" fill="#FFB8B8"/><path d="M58.507 251.615c2.308.272 4.64-.112 6.781-1.116 2.142-1.005 4.026-2.597 5.48-4.633 1.453-2.035 2.43-4.448 2.84-7.018a17.49 17.49 0 0 0-.49-7.693c-.66-2.236-1.765-4.286-2.37-6.541-.606-2.256-.622-4.924.72-6.732 2.626-3.539 7.688-1.313 11.737-2.016 4.315-.75 7.625-5.408 7.97-10.305.345-4.898-1.923-9.744-5.3-12.858-3.376-3.114-7.731-4.647-12.076-5.127-5.58-.617-11.206.393-16.338 2.933-5.132 2.539-9.596 6.523-12.964 11.568-3.367 5.044-5.523 10.979-6.261 17.234-.738 6.254-.033 12.617 2.048 18.476 1.815 5.11 4.78 9.871 8.99 12.67 4.212 2.799 9.774 3.336 13.97.511" fill="#2F2E41"/><path d="M236.322 228.273h-42.44c-2.695 0-4.887-3.514-4.887-7.835 0-4.32 2.192-7.834 4.888-7.834h42.439c2.695 0 4.888 3.514 4.888 7.834 0 4.321-2.193 7.835-4.888 7.835Z" fill="#fff"/><path d="M350.387 245.368H192.792c-1.007 0-1.973-.451-2.685-1.252-.713-.802-1.113-1.889-1.113-3.022 0-1.133.4-2.22 1.113-3.022.712-.801 1.678-1.252 2.685-1.252h157.595c1.007 0 1.973.451 2.685 1.252.712.802 1.112 1.889 1.112 3.022 0 1.133-.4 2.22-1.112 3.022-.712.801-1.678 1.252-2.685 1.252ZM269.501 262.462h-76.709c-1.007 0-1.973-.451-2.685-1.252-.713-.801-1.113-1.888-1.113-3.022 0-1.133.4-2.22 1.113-3.022.712-.801 1.678-1.251 2.685-1.251h76.709c1.007 0 1.973.45 2.685 1.251.712.802 1.112 1.889 1.112 3.022 0 1.134-.4 2.221-1.112 3.022-.712.801-1.678 1.252-2.685 1.252Z" fill="#E6E6E6"/><path d="M500.703 498.575h-500V500h500v-1.425Z" fill="#3F3D56"/></svg>