<svg width="863" height="645" fill="none" xmlns="http://www.w3.org/2000/svg"><g clip-path="url(#a)"><path d="M629.943 612.644h-17.166l-8.169-66.209h25.335v66.209Z" fill="#9E616A"/><path d="M639.003 642.385h-12.31l-2.198-11.622-5.627 11.622h-32.649c-1.565 0-3.089-.5-4.35-1.427a7.347 7.347 0 0 1-2.657-3.728 7.34 7.34 0 0 1 2.837-8.224L608.121 611v-11.75l27.424 1.637 3.458 41.498Z" fill="#2F2E41"/><path d="m731.923 590.981-13.775 10.243-46.063-48.255 20.33-15.118 39.508 53.13Z" fill="#9E616A"/><path d="m756.94 609.441-9.878 7.345-8.699-8.015 2.42 12.685-26.2 19.482a7.336 7.336 0 0 1-8.699.044 7.337 7.337 0 0 1-2.63-8.292l10.177-30.007-7.011-9.428 22.983-15.051 27.537 31.237ZM649.927 271.04s32.569 28.138 17.542 108.352l-18.345 78.597 59.829 99.256-19.076 23.207-77.78-107.433-28.185-66.114-7.909-117.669 73.924-18.196Z" fill="#2F2E41"/><path d="m599.447 425.746-1.959 30.338 5.995 129.281 28.209-4.913 5.391-92.046-37.636-62.66Z" fill="#2F2E41"/><path d="m237.445 628.211 15.351-.001 7.302-59.209-22.655.001.002 59.209Z" fill="#FFB6B6"/><path d="M233.53 623.199h4.32l16.869-6.86 9.041 6.859h.002a19.265 19.265 0 0 1 19.265 19.265v.626l-49.497.002v-19.892Z" fill="#2F2E41"/><path d="m296.932 618.538 14.973 3.38 20.166-56.146-22.099-4.99-13.04 57.756Z" fill="#FFB6B6"/><path d="m294.216 612.786 4.215.952 17.966-2.976 7.308 8.682h.001a19.27 19.27 0 0 1 14.549 23.036l-.138.611-48.282-10.901 4.381-19.404ZM218.003 266.236c-7.197 21.706-6.436 45.268 1.73 70.556l3.491 142.378s-5.201 93.369 11.582 126.225h24.34l12.051-134.752 1.513-90.445 52.183 76.305-33.237 146.689 29.957 2.678 53.934-159.191-66.544-154.443-91-26Z" fill="#2F2E41"/><path d="M498.698 204.408c18.617-16.777 46.309-25.212 69.537-15.805a115.467 115.467 0 0 0-51.888 59.935c-3.698 9.838-6.787 21.166-15.882 26.433-5.659 3.278-12.7 3.438-19.046 1.856-6.345-1.583-12.162-4.754-17.899-7.894l-1.632-.037c7.328-23.966 18.192-47.712 36.81-64.488Z" fill="#E6E6E6"/><path d="M568.105 189.112a98.695 98.695 0 0 0-54.906 25.931 42.515 42.515 0 0 0-8.346 10.377 24.374 24.374 0 0 0-2.817 12.515c.1 4.059.673 8.198-.215 12.21a14.913 14.913 0 0 1-7.424 9.689c-4.546 2.613-9.76 3.437-14.886 4.065-5.692.698-11.615 1.332-16.542 4.525-.597.387-1.163-.562-.567-.949 8.573-5.554 19.42-3.533 28.638-7.24 4.301-1.73 8.106-4.766 9.454-9.357 1.177-4.015.59-8.284.453-12.392a26.023 26.023 0 0 1 2.299-12.341 39.299 39.299 0 0 1 7.916-10.659 95.767 95.767 0 0 1 24.333-17.42 100.443 100.443 0 0 1 32.6-10.058c.703-.091.709 1.014.01 1.104Z" fill="#fff"/><path d="M517.799 210.184a14.805 14.805 0 0 1 1.632-19.104c.506-.498 1.305.265.798.764a13.715 13.715 0 0 0-1.482 17.774c.415.577-.535 1.14-.948.566ZM501.714 235.884a28.538 28.538 0 0 0 20.394-4.083c.598-.385 1.163.564.566.948a29.681 29.681 0 0 1-21.23 4.206c-.701-.126-.427-1.196.27-1.071ZM545.798 194.341a8.383 8.383 0 0 0 6.269 4.894c.702.117.427 1.188-.27 1.071a9.39 9.39 0 0 1-6.947-5.399.57.57 0 0 1 .191-.757.556.556 0 0 1 .757.191Z" fill="#fff"/><path d="M593.813 269.508c-.441-.061-.881-.122-1.328-.176a110.323 110.323 0 0 0-17.882-.908 46.1 46.1 0 0 0-1.392.04 116.364 116.364 0 0 0-41.75 9.61 113.05 113.05 0 0 0-15.163 8.056c-6.687 4.234-13.602 9.357-21.078 11.084a19.31 19.31 0 0 1-2.362.421l-30.889-26.745c-.039-.096-.085-.186-.125-.282l-1.282-1.011c.238-.176.49-.353.728-.529.138-.102.283-.198.421-.301.095-.066.189-.132.27-.198.032-.022.063-.044.088-.059.082-.065.164-.117.239-.176a370.411 370.411 0 0 1 4.235-2.954c.006-.007.006-.007.019-.008a166.202 166.202 0 0 1 34.601-18.6c.367-.138.74-.284 1.121-.411a107.924 107.924 0 0 1 16.939-4.766 95.159 95.159 0 0 1 9.553-1.334 79.287 79.287 0 0 1 24.723 1.751c16.143 3.743 30.91 12.608 39.656 26.433.224.354.441.702.658 1.063Z" fill="#E6E6E6"/><path d="M593.404 269.839a98.696 98.696 0 0 0-59.451-12.353 42.486 42.486 0 0 0-12.911 3.261 24.37 24.37 0 0 0-9.785 8.297c-2.363 3.3-4.398 6.951-7.523 9.62a14.927 14.927 0 0 1-11.761 3.265c-5.203-.65-9.862-3.132-14.333-5.716-4.965-2.87-10.076-5.93-15.932-6.347-.71-.051-.59-1.149.118-1.098 10.189.726 17.633 8.87 27.225 11.46 4.476 1.208 9.343 1.075 13.182-1.779 3.358-2.496 5.459-6.259 7.823-9.622a26.007 26.007 0 0 1 9.266-8.468 39.264 39.264 0 0 1 12.737-3.745 95.722 95.722 0 0 1 29.917.741 100.476 100.476 0 0 1 32.085 11.596c.616.351-.045 1.237-.657.888Z" fill="#fff"/><path d="M540.55 256.376a14.808 14.808 0 0 1 12.806-14.27c.704-.094.882.997.177 1.09a13.715 13.715 0 0 0-11.884 13.299c-.016.711-1.114.588-1.099-.119ZM512.234 267.212a28.536 28.536 0 0 0 18.742 9.018c.71.053.59 1.151-.119 1.098a29.682 29.682 0 0 1-19.483-9.423c-.484-.523.38-1.213.86-.693ZM572.445 260.584a8.38 8.38 0 0 0 2.059 7.682c.49.516-.374 1.205-.861.692a9.383 9.383 0 0 1-2.296-8.493.57.57 0 0 1 .609-.49.557.557 0 0 1 .489.609Z" fill="#fff"/><path d="M51.273 627.136c-1.45 5.44-5.26 9.97-9.86 13.27-.75.54-1.52 1.04-2.3 1.51-.24.14-.48.29-.73.42-.27.16-.54.31-.81.45h-21.63c-.39-.79-.77-1.59-1.15-2.38-9.27-19.48-15.78-40.5-14.67-61.91a79.251 79.251 0 0 1 5.17-24.25c5.94-15.47 16.78-28.86 31.69-35.6.37-.17.76-.34 1.14-.5l-.36 1.28a110.778 110.778 0 0 0-3.38 17.59c-.06.46-.11.92-.15 1.39a116.058 116.058 0 0 0 3.72 42.69l.03.1a105.2 105.2 0 0 0 2.96 9.07c.88 2.35 1.83 4.67 2.87 6.95 4.34 9.57 10.16 19.77 7.46 29.92Z" fill="#E6E6E6"/><path d="M38.393 518.596c-.21.28-.42.55-.63.83a98.136 98.136 0 0 0-11.12 18.76c-.16.33-.31.66-.44 1a97.817 97.817 0 0 0-7.82 29.24c-.011.069-.018.14-.02.21-.25 2.36-.4 4.74-.46 7.12a42.48 42.48 0 0 0 1.43 13.24 23.768 23.768 0 0 0 5.46 9.42c.25.27.5.54.77.8.2.21.42.42.63.62 2.02 1.93 4.23 3.72 6.13 5.79.871.928 1.658 1.932 2.35 3a14.905 14.905 0 0 1 1.6 12.1c-1.36 5.06-4.47 9.33-7.65 13.4-1.59 2.04-3.23 4.1-4.65 6.28-.52.78-1 1.57-1.44 2.38h-1.26c.42-.81.88-1.6 1.38-2.38 3.65-5.75 8.84-10.69 11.53-17.02 1.82-4.27 2.37-9.11.07-13.3a17.688 17.688 0 0 0-2.43-3.38c-1.83-2.07-4.02-3.84-6.01-5.71-.5-.47-.99-.95-1.46-1.45a24.969 24.969 0 0 1-5.64-8.9 39.234 39.234 0 0 1-1.94-13.13c0-2.84.15-5.7.43-8.54.03-.36.07-.73.11-1.1a100.765 100.765 0 0 1 19.67-49.23c.2-.28.41-.55.62-.82.43-.56 1.22.22.79.77Z" fill="#fff"/><path d="M17.717 569.071a14.808 14.808 0 0 1-12.354-14.663.554.554 0 0 1 .927-.399.554.554 0 0 1 .177.375A13.712 13.712 0 0 0 17.987 568c.702.114.427 1.184-.27 1.071ZM24.516 598.617a28.538 28.538 0 0 0 11.533-17.308c.15-.695 1.222-.424 1.07.27a29.681 29.681 0 0 1-12.037 17.986c-.585.407-1.148-.544-.566-.948ZM26.312 538.069a8.381 8.381 0 0 0 7.894-.972c.58-.413 1.142.538.566.949a9.398 9.398 0 0 1-8.73 1.094.573.573 0 0 1-.4-.671.557.557 0 0 1 .67-.4Z" fill="#fff"/><path d="M113.413 557.266c-.35.27-.71.54-1.06.82a110.421 110.421 0 0 0-13.29 12c-.32.33-.64.67-.95 1.01l-.01.01a116.347 116.347 0 0 0-22.66 36.14l-.03.09c-.01.03-.02.05-.03.08a114.451 114.451 0 0 0-5.03 16.42c-1.22 5.46-2.22 11.31-4.13 16.57-.29.81-.61 1.61-.95 2.38h-44.46c.15-.79.31-1.59.47-2.38a160.308 160.308 0 0 1 10.54-33.7c.16-.36.32-.72.5-1.08a108.318 108.318 0 0 1 8.61-15.35v-.004l.003-.003.003-.002.004-.001a95.017 95.017 0 0 1 5.8-7.69 79.113 79.113 0 0 1 18.72-16.24c.04-.03.09-.05.13-.08 14.04-8.71 30.68-12.86 46.59-9.27h.01c.41.09.81.18 1.22.28Z" fill="#E6E6E6"/><path d="M113.363 557.796c-.34.09-.68.19-1.01.29a98.609 98.609 0 0 0-20.17 8.27c-.32.17-.64.35-.96.53a98.262 98.262 0 0 0-23.79 18.59.033.033 0 0 0-.01.02c-.08.08-.17.17-.24.25a90.03 90.03 0 0 0-4.6 5.35 42.765 42.765 0 0 0-6.82 11.43 23.675 23.675 0 0 0-1.31 10.81c.03.37.08.73.13 1.1.04.29.08.58.13.88.66 4.01 1.8 8.03 1.48 12.12a14.905 14.905 0 0 1-6.01 10.63 23.814 23.814 0 0 1-3.68 2.34 36.88 36.88 0 0 1-5.77 2.38h-3.93l1.58-.45a48.235 48.235 0 0 0 5.53-1.93 26.984 26.984 0 0 0 3-1.48c4.02-2.31 7.37-5.85 8.07-10.58.61-4.14-.57-8.28-1.27-12.33-.12-.7-.23-1.39-.29-2.08a24.44 24.44 0 0 1 .85-10.46 39.066 39.066 0 0 1 6.36-11.66 83.23 83.23 0 0 1 5.48-6.55c.24-.27.49-.54.75-.81a100.912 100.912 0 0 1 24.21-18.73h.01a99.301 99.301 0 0 1 21.1-8.74h.01c.33-.1.67-.2 1-.29.69-.18.85.91.17 1.1Z" fill="#fff"/><path d="M66.468 585.645A14.805 14.805 0 0 1 65.43 566.5c.433-.564 1.33.081.897.646a13.71 13.71 0 0 0 1 17.807c.491.514-.372 1.203-.86.692ZM54.107 613.33a28.545 28.545 0 0 0 19.63-6.876c.538-.464 1.23.397.692.861a29.688 29.688 0 0 1-20.44 7.113c-.712-.028-.59-1.126.118-1.098ZM91.996 566.067a8.377 8.377 0 0 0 6.887 3.977c.712.019.588 1.117-.119 1.098a9.392 9.392 0 0 1-7.63-4.382.572.572 0 0 1 .085-.777.554.554 0 0 1 .777.084Z" fill="#fff"/><path d="M456.383 173.13a11.608 11.608 0 0 1-8.688 4.566 11.59 11.59 0 0 1-9.079-3.729l-37.801 16.44 3.682-21.101 35.332-12.377a11.66 11.66 0 0 1 15.473.748 11.663 11.663 0 0 1 1.081 15.453Z" fill="#FFB8B8"/><path d="m431.157 179.718-87.797 39.108-.189-.067L243.104 183.1a32.961 32.961 0 0 1-14.781-42.756 32.928 32.928 0 0 1 20.207-17.867 32.919 32.919 0 0 1 26.78 3.231l74.468 44.859 72.212-9.359 9.167 18.51Z" fill="#E6E6E6"/><path d="M862.703 643.596a1.191 1.191 0 0 1-.347.842 1.185 1.185 0 0 1-.843.348H1.223a1.187 1.187 0 0 1-1.19-1.19 1.188 1.188 0 0 1 1.19-1.19h860.29a1.185 1.185 0 0 1 1.19 1.19Z" fill="#CCC"/><path d="m313.343 296.796-88.505-14.156A16.903 16.903 0 0 1 213.106 266c.08-2.436.686-4.826 1.776-7.006l4.014-8.029-1.559-84.346a62.482 62.482 0 0 1 30.336-54.654l8.631-5.161 4.362-11.076 40.22.98.117 14.528 14.404 22.968-.001.095-.903 125.014-3.97 12.902 6.002 15.005-3.192 9.576Z" fill="#E6E6E6"/><path d="M284.459 81.954c20.183 0 36.544-16.361 36.544-36.544 0-20.183-16.361-36.544-36.544-36.544-20.183 0-36.544 16.361-36.544 36.544 0 20.183 16.361 36.544 36.544 36.544Z" fill="#FFB8B8"/><path d="M246.406 53.377c-1.09-4.592-.59-11.054.026-15.678 1.615-12.12 8.346-23.644 18.573-30.47a13.381 13.381 0 0 1 6.665-2.648c2.419-.101 5.042 1.194 5.785 3.499a11.992 11.992 0 0 1 6.765-6.71 21.136 21.136 0 0 1 9.631-1.297 35.2 35.2 0 0 1 29.363 20.99c.976 2.318 3.702-6.247 4.939-4.056a9.742 9.742 0 0 0 5.524 4.854c2.423.676 3.407 10.66 4.361 8.332a11.1 11.1 0 0 1-10.61 15.475c-2.467-.092-4.825-1-7.262-1.39-8.716-1.396-17.96 4.923-19.824 13.55a23.984 23.984 0 0 0-3.155-7.02 8.123 8.123 0 0 0-6.513-3.579c-2.48.093-4.66 1.714-6.268 3.603-1.609 1.89-2.818 4.093-4.438 5.972-4.756 5.513-11.188 18.37-17.965 17.432-5.348-.74-14.109-14.59-15.597-20.86Z" fill="#2F2E41"/><path d="M505.364 214.54a7.13 7.13 0 0 0-4.807-7.853l-98.413-32.777a7.12 7.12 0 0 0-2.933-.337l-24.667 2.333-14.154 1.342-26.118 2.469a7.15 7.15 0 0 0-6.384 5.989l-13.261 82.838a7.189 7.189 0 0 0 4.484 7.796l99.44 38.384c.467.181.952.312 1.447.389.72.116 1.454.122 2.175.016l64.256-9.523a7.122 7.122 0 0 0 6.023-6l12.912-85.066Z" fill="#fff"/><path d="m321.365 270.503 99.44 38.383a.902.902 0 0 0 .457.053l64.247-9.522a.886.886 0 0 0 .755-.752l12.92-85.066a.905.905 0 0 0-.6-.982l-.661-.224-97.758-32.546a.637.637 0 0 0-.137-.033.887.887 0 0 0-.23-.012l-60.165 5.693-4.774.448a.906.906 0 0 0-.795.748l-13.259 82.834a.9.9 0 0 0 .56.978Z" fill="#6C63FF"/><path d="m339.634 185.495 60.164-5.693a.887.887 0 0 1 .23.012.637.637 0 0 1 .137.033l97.758 32.546-25.787 2.73-9.65 1.016-27.461 2.902c-.08.004-.16.003-.24-.003a3.221 3.221 0 0 0-.157-.045l-94.994-33.498Z" fill="#2F2E41"/><path d="m319.109 276.345 99.44 38.382c.468.181.955.308 1.451.38.72.119 1.454.128 2.177.027l64.247-9.522a7.14 7.14 0 0 0 6.029-6.004l12.909-85.068a7.184 7.184 0 0 0-.418-3.716 6.23 6.23 0 0 0-.207-.462 6.99 6.99 0 0 0-2.264-2.698 7.14 7.14 0 0 0-1.915-.976l-.117-.042-98.292-32.737a8.883 8.883 0 0 0-1.227-.298 7.03 7.03 0 0 0-1.715-.033l-24.663 2.324-14.152 1.35-26.123 2.467a7.105 7.105 0 0 0-3.019.997 1.42 1.42 0 0 0-.202.121c-.046.03-.089.063-.13.099a7.149 7.149 0 0 0-3.027 4.763l-13.27 82.844a7.194 7.194 0 0 0 4.488 7.802Zm10.543-90.357a5.298 5.298 0 0 1 1.269-2.671 4.68 4.68 0 0 1 .676-.659 5.319 5.319 0 0 1 2.833-1.156l43.985-4.155 20.964-1.995c.143-.017.273-.014.404-.022.318-.006.635.017.948.071.288.037.571.105.845.201l98.408 32.779c.078.027.145.054.223.081a5.215 5.215 0 0 1 2.273 1.654 5.257 5.257 0 0 1 1.121 4.146l-12.921 85.076a5.347 5.347 0 0 1-4.508 4.502l-64.257 9.521a5.414 5.414 0 0 1-2.723-.31l-99.441-38.373a5.404 5.404 0 0 1-3.359-5.846l13.26-82.844Z" fill="#3F3D56"/><path d="M330.704 181.387a.875.875 0 0 1 .397-.474c.041-.016.084-.042.126-.058a.872.872 0 0 1 .624-.011l2.07.73 101.115 35.67 23.665-2.501 13.243-1.397 28.03-2.967 2.506-.263.487-.054a.908.908 0 0 1 .952.654.892.892 0 0 1-.523 1.065 1.011 1.011 0 0 1-.248.067l-3.409.357-27.603 2.918-9.65 1.016-27.461 2.902a1.94 1.94 0 0 1-.241-.003 2.876 2.876 0 0 0-.156-.045l-103.031-36.335-.35-.124a.663.663 0 0 1-.219-.121.914.914 0 0 1-.324-1.026Z" fill="#3F3D56"/><path d="M420.271 315.367a.89.89 0 0 1-.743-1.015l14.517-96.334a.89.89 0 0 1 1.017-.751l.008.001a.896.896 0 0 1 .742 1.016l-14.516 96.334a.896.896 0 0 1-1.017.751l-.008-.002ZM457.068 309.256l-9.655 1.019 11.293-95.534s12.895-2.335 13.24-1.399c.212.559-14.786 95.302-14.878 95.914Z" fill="#3F3D56"/><path d="m331.25 182.533-.26 43.567 77.126 29.388 27.697-37.204-104.563-35.751ZM502.483 210.118a5.302 5.302 0 0 0-2.497-1.737l-98.406-32.778a5.041 5.041 0 0 0-.848-.206 4.96 4.96 0 0 0-.95-.071l.159-.998.986-.713 23.368-16.919 78.04 23.917.136 27.052.012 2.453Z" fill="#3F3D56"/><path d="M335.181 252.473c.11.01.22.033.326.068l30.193 9.917a1.501 1.501 0 0 1-.935 2.851l-30.194-9.917a1.502 1.502 0 0 1-.422-2.633 1.499 1.499 0 0 1 1.032-.286Z" fill="#fff"/><path d="M457.003 435.236c6.628 0 12-5.373 12-12s-5.372-12-12-12c-6.627 0-12 5.373-12 12s5.373 12 12 12ZM151.003 479.236c6.628 0 12-5.373 12-12s-5.372-12-12-12c-6.627 0-12 5.373-12 12s5.373 12 12 12ZM401.003 82.236c6.628 0 12-5.373 12-12 0-6.628-5.372-12-12-12-6.627 0-12 5.373-12 12s5.373 12 12 12Z" fill="#F2F2F2"/><path d="M420.692 270.121a11.591 11.591 0 0 1-9.811-.264 11.6 11.6 0 0 1-6.096-7.693l-41.012-4.143 13.53-16.606 36.871 6.48a11.665 11.665 0 0 1 13.131 8.218 11.66 11.66 0 0 1-6.613 14.008Z" fill="#FFB8B8"/><path d="m395.467 263.534-95.709-8.819-.131-.15-69.851-80.037a32.963 32.963 0 0 1 8.013-44.523 32.92 32.92 0 0 1 38.959-.081 32.925 32.925 0 0 1 9.185 10.29l43.022 75.544 67.566 27.147-1.054 20.629Z" fill="#E6E6E6"/><path d="m567.884 206.925-69.876 1.495a11.059 11.059 0 0 0-10.768-5.454 11.05 11.05 0 0 0-9.338 7.647 11.054 11.054 0 0 0 15.166 13.381c9.268.526 81.772 10.817 86.097 4.185 4.391-6.731 27.825-30.486 27.825-30.486l-18.013-25.644-21.093 34.876ZM584.911 126.865c18.132 0 32.83-14.698 32.83-32.83 0-18.131-14.698-32.83-32.83-32.83-18.132 0-32.83 14.699-32.83 32.83 0 18.132 14.698 32.83 32.83 32.83Z" fill="#9E616A"/><path d="M637.494 157.204c-3.869-7.7-5.749-17.212-13.997-19.708-5.57-1.686-28.097.84-33.173 3.685-8.444 4.734-.792 13.603-5.774 21.903-5.415 9.022-20.132 27.129-25.547 36.152-3.723 6.203 8.817 24.409 6.804 31.358-2.012 6.948-2.109 14.747 1.32 21.117 3.069 5.702-1.372 10.745 1.715 16.437 3.21 5.92 7.148 28.053 4.161 34.088l-2 6c19.847 1.166 36.535-22.544 56.258-25.042 4.899-.62 9.986-1.431 14.023-4.274 5.946-4.189 8.297-11.789 9.766-18.913a159.326 159.326 0 0 0-13.556-102.803Z" fill="#3F3D56"/><path d="M667.249 238.505c-2.764-7.545-7.769-40.536-7.769-40.536l-31.324-.919 15.315 37.772-41.791 58.503.218.358A11.044 11.044 0 0 0 590.617 299a11.053 11.053 0 0 0 .855 12.442 11.053 11.053 0 0 0 19.696-6.014.766.766 0 0 0 .958-.165c4.65-5.835 57.888-59.212 55.123-66.758Z" fill="#9E616A"/><path d="M670.434 217.67c-2.875-12.134-5.771-24.335-10.619-35.825-4.847-11.49-11.786-22.343-21.546-30.106-3.121-2.482-6.609-4.672-10.521-5.444-3.912-.771-8.32.092-11.067 2.982-4.396 4.623-3.073 12.045-1.461 18.218l14.263 54.601 41.188-4.366-.237-.06Z" fill="#3F3D56"/><path d="M625.139 98.589c-1.209-7.942-2.472-15.95-5.313-23.429-2.84-7.478-7.418-14.482-13.986-18.719-10.399-6.707-23.862-5.413-35.521-1.555-9.016 2.984-17.817 7.519-24.176 14.81-6.358 7.29-9.929 17.693-7.564 27.226l37.309-8.815-1.361.962a30.045 30.045 0 0 1 16.03 20.893 31.12 31.12 0 0 1-6.565 25.848l25.445-9.027c5.235-1.857 10.838-3.997 13.943-8.76 3.599-5.523 2.763-12.843 1.759-19.434Z" fill="#2F2E41"/><path d="M635.69 109.617c-2.377-17.434-5.358-36.152-17.654-48.737a41.348 41.348 0 0 0-59.744.618c-8.951 9.549-12.903 22.957-13.265 36.04-.362 13.083 2.552 26.021 5.784 38.704a119.3 119.3 0 0 0 49.786-9.8c3.926-1.704 7.789-3.63 11.937-4.686s7.104 1.601 10.963 3.453l2.118-4.055c1.734 3.226 7.102 2.27 9.05-.833 1.947-3.102 1.52-7.075 1.025-10.704Z" fill="#2F2E41"/></g><defs><clipPath id="a"><path fill="#fff" d="M0 0h862.703v644.786H0z"/></clipPath></defs></svg>