<svg width="663" height="400" fill="none" xmlns="http://www.w3.org/2000/svg"><g clip-path="url(#a)"><path d="M31.305 399.106c-.04-.196-3.923-19.824 4.005-36.126 7.928-16.302 24.851-23.492 25.021-23.563l.774-.321.182.894c.04.196 3.922 19.824-4.006 36.126-7.927 16.302-24.85 23.491-25.02 23.562l-.774.322-.182-.894Zm28.739-57.829c-3.39 1.617-16.768 8.693-23.464 22.461-6.697 13.77-4.676 30.054-4.032 34.081 3.388-1.613 16.761-8.678 23.464-22.462 6.696-13.769 4.676-30.051 4.032-34.08Z" fill="#F1F1F1"/><path d="M51.223 370.398c-14.247 9.504-19.734 28.382-19.734 28.382s17.612 3.468 31.859-6.036c14.247-9.504 19.734-28.382 19.734-28.382s-17.612-3.468-31.859 6.036Z" fill="#F1F1F1"/><path d="M266.974 218.039a9.584 9.584 0 0 0-.092-3.754 9.055 9.055 0 0 0-1.515-3.357 8.003 8.003 0 0 0-2.654-2.332 7.18 7.18 0 0 0-3.294-.867l-6.598-18.397-11.06 1.719 9.646 25.834c.098 2.13.898 4.146 2.248 5.665 1.349 1.519 3.154 2.437 5.073 2.579 1.919.142 3.819-.501 5.338-1.808 1.52-1.307 2.555-3.186 2.908-5.282Z" fill="#FFB8B8"/><path d="m246.597 211.575-3.427-9.062-21.356-45.076 1.161-83.406.223-.033c13.665-2.002 22.911 67.815 23.298 70.788l13.494 51.17 3.212 11.279-16.605 4.34Z" fill="#6C63FF"/><path d="M213.782 387.45h10.384l4.939-44.41-15.325.001.002 44.409Z" fill="#FFB8B8"/><path d="m211.133 383.691 20.449-.001h.001c3.456.001 6.771 1.523 9.215 4.233s3.817 6.385 3.817 10.217v.469l-33.481.002-.001-14.92Z" fill="#252427"/><path d="m118.308 369.908 8.52 6.583 26.952-33.303-12.574-9.715-22.898 36.435Z" fill="#FFB8B8"/><path d="m118.074 365.145 16.777 12.964h.001c2.835 2.191 4.77 5.542 5.378 9.314.607 3.773-.161 7.658-2.137 10.803l-.242.385-27.47-21.225 7.693-12.241ZM208.075 377.012l-.448-83.309-6.534-52.384-12.181 46.067-.023.038-44.142 71.057-17.176-9.649.094-.248c1.05-2.768 25.784-67.787 32.432-67.787a3.286 3.286 0 0 0 1.695-.326 3.667 3.667 0 0 0 1.364-1.164c1.951-2.889.362-9.02.346-9.081-1.904-8.751 2.882-11.731 3.835-12.228l2.563-58.676.266.02 69.494 5.405-2.915 73.36-6.272 96.117-.215.027-22.183 2.761Z" fill="#252427"/><path d="m241.04 218.836-.3-.027-74.74-6.681.184-27.42 3.659-71.596.02-.049 14.898-35.862 10.56-5.302L210.728 71l.038.01 14.061 3.863 14.627 116.428 1.586 27.535Z" fill="#6C63FF"/><path d="M212.825 60.722c9.536-5.78 13.041-19.037 7.828-29.611-5.213-10.574-17.17-14.46-26.706-8.68-9.536 5.78-13.041 19.038-7.828 29.612 5.213 10.574 17.17 14.46 26.706 8.68Z" fill="#FFB8B8"/><path d="M183.596 47.054v-8.501s-6.183-8.075.618-10.109c0 0 1.855-20.34 17.931-10.848 0 0 22.259-4.068 19.786 10.17 0 0 5.565-3.717 3.71 5.775l-3.588 15.29s1.733-10.1-3.832-11.456l-3.092-2.034s-8.656 9.492-21.64-2.034c0 0-5.565-1.473-4.947 4.63.619 6.101-4.946 9.117-4.946 9.117Z" fill="#2F2E41"/><path d="M201.337 197.272a9.459 9.459 0 0 0-.698-3.674 8.636 8.636 0 0 0-2.034-3.002 7.593 7.593 0 0 0-2.988-1.765 7.06 7.06 0 0 0-3.381-.198l-9.468-16.786-10.603 3.892 13.671 23.496c.442 2.075 1.555 3.899 3.128 5.125 1.574 1.226 3.498 1.77 5.409 1.528 1.911-.242 3.675-1.253 4.959-2.841 1.283-1.588 1.997-3.643 2.005-5.775Z" fill="#FFB8B8"/><path d="m176.884 191.981-17.129-38.56.015-.094c.069-.427 6.964-42.877 12.237-58.48 5.307-15.702 12.571-18.854 12.878-18.98l.153-.064 6.513 6.927-9.022 66.774 9.725 32.204-15.37 10.273Z" fill="#6C63FF"/><path d="M600 0h-33.165v36.774H600V0Z" fill="#F1F1F1"/><path d="M600 0h-33.165v36.774H600V0ZM340.449 143.098h-33.165v36.774h33.165v-36.774Z" fill="#F1F1F1"/><path d="M590.262 166.156H323.736V14.177h266.526v151.979Zm-262.2-4.797h257.874V18.973H328.062V161.36Z" fill="#E5E5E5"/><path d="M590.262 166.156H323.736V14.177h266.526v151.979Zm-262.2-4.797h257.874V18.973H328.062V161.36Z" fill="#E5E5E5"/><path d="M590.262 166.156H323.736V14.177h266.526v151.979Zm-262.2-4.797h257.874V18.973H328.062V161.36Z" fill="#E5E5E5"/><path d="M590.262 166.156H323.736V14.177h266.526v151.979Zm-262.2-4.797h257.874V18.973H328.062V161.36Z" fill="#E5E5E5"/><path d="M559.105 68.204H357.371v7.418h201.734v-7.418Z" fill="#E5E5E5"/><path d="M559.105 68.204H357.371v7.418h201.734v-7.418ZM559.105 86.194H357.371v7.418h201.734v-7.418Z" fill="#E5E5E5"/><path d="M559.105 86.194H357.371v7.418h201.734v-7.418Z" fill="#E5E5E5"/><path d="M559.105 112.756h-37.491v6.438h37.491v-6.438Z" fill="#6C63FF"/><path d="M275.413 399.968H.721a.687.687 0 0 1-.51-.234.848.848 0 0 1-.211-.566c0-.212.076-.415.211-.565a.687.687 0 0 1 .51-.234h274.692c.191 0 .374.084.509.234.136.15.212.353.212.565a.844.844 0 0 1-.212.566.685.685 0 0 1-.509.234Z" fill="#CBCBCB"/></g><path d="M657.471 273H395.532c-1.466-.002-2.873-.682-3.91-1.892s-1.62-2.851-1.622-4.562V132.454c.002-1.711.585-3.352 1.622-4.562 1.037-1.21 2.444-1.89 3.91-1.892h261.936c1.466.002 2.873.682 3.91 1.892s1.62 2.851 1.622 4.562v134.089c-.001 1.711-.583 3.352-1.62 4.562-1.037 1.211-2.442 1.892-3.909 1.895Z" fill="#6C63FF"/><path d="M437.444 173.473c-.704-.044-1.391.317-1.91 1.006-.52.688-.829 1.646-.86 2.663-.03 1.018.22 2.012.696 2.762.476.751 1.138 1.198 1.842 1.243.077.005.155.005.232 0h125.097c.683-.043 1.329-.467 1.802-1.181.474-.715.738-1.666.738-2.656 0-.989-.264-1.941-.738-2.656-.473-.714-1.119-1.137-1.802-1.181H437.444ZM437.444 195.704c-.704-.044-1.391.318-1.91 1.006-.52.688-.829 1.646-.86 2.664-.03 1.017.22 2.011.696 2.762.476.751 1.138 1.197 1.842 1.242.077.005.155.005.232 0h125.097c.683-.043 1.329-.466 1.802-1.181.474-.715.738-1.666.738-2.656 0-.989-.264-1.941-.738-2.656-.473-.714-1.119-1.137-1.802-1.181H437.444ZM437.444 217.665c-.684.043-1.33.466-1.803 1.181-.473.715-.737 1.666-.737 2.656 0 .989.264 1.94.737 2.655.473.715 1.119 1.138 1.803 1.181h53.83a1.92 1.92 0 0 0 1.024-.228c.328-.172.629-.436.886-.777a4.11 4.11 0 0 0 .613-1.208c.147-.457.231-.952.246-1.456a5.406 5.406 0 0 0-.158-1.481 4.417 4.417 0 0 0-.537-1.281 2.984 2.984 0 0 0-.836-.886 2.025 2.025 0 0 0-1.007-.356 1.78 1.78 0 0 0-.231 0h-53.83Z" fill="#fff"/><defs><clipPath id="a"><path fill="#fff" d="M0 0h600v400H0z"/></clipPath></defs></svg>