<svg width="501" height="500" fill="none" xmlns="http://www.w3.org/2000/svg"><path d="m405.373 239.1 12.315 40.105-2.964 49.6c-.93 1.139-1.589 2.674-1.882 4.386a11.94 11.94 0 0 0 .248 5.149c.454 1.636 1.254 3.024 2.284 3.967 1.031.942 2.241 1.392 3.458 1.285 1.217-.108 2.381-.766 3.324-1.883.944-1.116 1.621-2.634 1.935-4.338a11.958 11.958 0 0 0-.186-5.155c-.435-1.647-1.218-3.055-2.237-4.023l.482-.123 4.825-49.565-7.957-49.995-13.645 10.59Z" fill="#FFB8B8"/><path d="M370.206 500c12.139 0 21.979-1.482 21.979-3.31s-9.84-3.31-21.979-3.31c-12.138 0-21.978 1.482-21.978 3.31s9.84 3.31 21.978 3.31ZM435.226 500c12.138 0 21.978-1.482 21.978-3.31s-9.84-3.31-21.978-3.31c-12.139 0-21.979 1.482-21.979 3.31s9.84 3.31 21.979 3.31ZM485.593 500c8.345 0 15.11-1.019 15.11-2.276s-6.765-2.276-15.11-2.276c-8.345 0-15.11 1.019-15.11 2.276s6.765 2.276 15.11 2.276Z" fill="#E6E6E6"/><path d="M489.915 480.474a85.183 85.183 0 0 1-2.034 17.079h-7.285c.008-.112.015-.238.023-.375.486-8.077 3.286-57.219-.062-65.623.294.682 9.925 23.263 9.358 48.919Z" fill="#E6E6E6"/><path d="M489.371 497.178c-.061.125-.124.25-.189.375h-5.466l.145-.375c.903-2.356 3.575-9.401 6.056-16.704 2.666-7.848 5.112-15.994 4.906-18.942.064.666 1.908 20.935-5.452 35.646ZM336.666 316.914H4.699c-1.06-.002-2.075-.611-2.824-1.694-.75-1.083-1.17-2.552-1.172-4.084V5.777c.001-1.531.423-3 1.172-4.083C2.624.61 3.64.002 4.699 0h331.967c1.059.002 2.075.61 2.824 1.694.749 1.083 1.17 2.552 1.171 4.083v305.359c-.001 1.532-.422 3.001-1.171 4.084-.749 1.083-1.765 1.692-2.824 1.694ZM4.699 2.286c-.64 0-1.254.37-1.707 1.024-.452.654-.707 1.542-.708 2.467v305.359c.001.926.256 1.814.708 2.468.453.655 1.067 1.023 1.707 1.024h331.967c.64-.001 1.254-.369 1.706-1.024.453-.654.708-1.542.708-2.468V5.777c0-.925-.255-1.813-.708-2.467-.452-.655-1.066-1.023-1.706-1.024H4.699Z" fill="#E6E6E6"/><path d="M250.68 45.018H74.793c-.864.002-1.692.498-2.303 1.382-.61.883-.954 2.08-.956 3.329v217.455c.001 1.249.345 2.446.956 3.329.61.883 1.439 1.38 2.303 1.382H250.68c.863-.002 1.691-.499 2.302-1.382.611-.883.955-2.08.956-3.329V49.729c-.001-1.249-.345-2.446-.956-3.33-.611-.883-1.439-1.38-2.302-1.38Zm1.949 222.167c0 .749-.205 1.467-.57 1.997-.366.531-.862.831-1.379.834H74.793c-.519-.002-1.015-.301-1.38-.832-.366-.531-.571-1.25-.57-1.999V49.729c-.001-.75.204-1.468.57-2 .365-.53.861-.83 1.38-.832H250.68c.517.004 1.013.304 1.379.834.365.531.57 1.25.57 1.998v217.456Z" fill="#3F3D56"/><path d="M115.391 233.23c0 .335-.006.67-.018.996-.178 4.907-1.651 9.529-4.117 12.911-2.465 3.382-5.734 5.268-9.133 5.268-3.398 0-6.667-1.886-9.132-5.268-2.466-3.382-3.94-8.004-4.117-12.911a26.973 26.973 0 0 1-.018-.996c0-5.088 1.397-9.967 3.886-13.565 2.488-3.597 5.862-5.618 9.381-5.618s6.894 2.021 9.382 5.618c2.488 3.598 3.886 8.477 3.886 13.565ZM237.012 220.438H132.763c-.572.032-1.114.382-1.511.979-.397.596-.619 1.391-.619 2.219 0 .828.222 1.624.619 2.22.397.596.939.947 1.511.978h104.249c.586.031 1.156-.276 1.586-.853.43-.577.683-1.377.706-2.224.022-.847-.19-1.672-.588-2.295-.398-.622-.951-.99-1.537-1.024a1.55 1.55 0 0 0-.167 0Z" fill="#6C63FF"/><path d="M177.62 239.625h-44.857c-.586 0-1.148.336-1.562.935-.414.599-.647 1.411-.647 2.258s.233 1.66.647 2.258c.414.599.976.936 1.562.936h44.857c.586.001 1.148-.334 1.563-.932.415-.598.649-1.409.65-2.256.001-.847-.231-1.66-.644-2.26-.414-.6-.975-.938-1.561-.939h-.008Z" fill="#E6E6E6"/><path d="M292.466 196.714H116.578c-.985-.001-1.929-.568-2.625-1.575-.697-1.007-1.088-2.372-1.09-3.796V79.739c.002-1.424.393-2.789 1.09-3.796.696-1.007 1.64-1.573 2.625-1.575h175.886c.985.002 1.929.568 2.626 1.575.696 1.007 1.088 2.372 1.089 3.796V191.34c0 1.424-.392 2.79-1.088 3.797-.696 1.008-1.64 1.575-2.625 1.577Z" fill="#6C63FF"/><path d="M152.4 113.929c-.586-.037-1.159.264-1.592.838-.433.573-.69 1.372-.716 2.22-.026.848.183 1.676.579 2.301.397.626.949.999 1.536 1.036.064.004.129.004.193 0h104.247c.57-.036 1.108-.389 1.503-.985.394-.595.614-1.388.614-2.213 0-.824-.22-1.617-.614-2.213-.395-.595-.933-.948-1.503-.984H152.4ZM152.4 132.455c-.586-.037-1.159.264-1.592.838-.433.573-.69 1.372-.716 2.22-.026.848.183 1.676.579 2.301.397.626.949.999 1.536 1.036.064.004.129.004.193 0h104.247c.57-.036 1.108-.389 1.503-.985.394-.595.614-1.388.614-2.213 0-.824-.22-1.617-.614-2.213-.395-.595-.933-.948-1.503-.984H152.4ZM152.4 150.756c-.57.035-1.108.388-1.503.984-.394.595-.614 1.388-.614 2.213 0 .824.22 1.617.614 2.213.395.595.933.948 1.503.984h44.858c.29.018.58-.046.853-.19.273-.144.524-.364.739-.648.214-.284.387-.626.51-1.007a4.528 4.528 0 0 0 .074-2.447 3.642 3.642 0 0 0-.448-1.067 2.49 2.49 0 0 0-.696-.739 1.692 1.692 0 0 0-.839-.296 1.243 1.243 0 0 0-.193 0H152.4Z" fill="#fff"/><path d="M14.887 20.23c1.517 0 2.747-1.778 2.747-3.972s-1.23-3.972-2.747-3.972c-1.518 0-2.748 1.778-2.748 3.972s1.23 3.972 2.748 3.972ZM24.502 20.23c1.518 0 2.748-1.778 2.748-3.972s-1.23-3.972-2.748-3.972c-1.517 0-2.747 1.778-2.747 3.972s1.23 3.972 2.747 3.972ZM34.118 20.23c1.517 0 2.747-1.778 2.747-3.972s-1.23-3.972-2.747-3.972c-1.518 0-2.748 1.778-2.748 3.972s1.23 3.972 2.748 3.972Z" fill="#6C63FF"/><path d="M401.169 189.26c6.759 0 12.238-7.921 12.238-17.693 0-9.772-5.479-17.694-12.238-17.694-6.759 0-12.238 7.922-12.238 17.694 0 9.772 5.479 17.693 12.238 17.693Z" fill="#FFB8B8"/><path d="m376.963 265.928 32.141 8.645c10.836-28.702 16.812-54.619 6.728-71.327l-19.061-1.622c-12.179 18.83-22.479 37.104-15.48 50.256l-4.328 14.048Z" fill="#6C63FF"/><path d="M405.585 243.391c7.356 4.069 14.183.533 20.448-11.065l-9.287-25.907-11.834 3.391.673 33.581Z" fill="#6C63FF"/><path d="m373.972 480.99 12.707-.945 8.221-124.418 41.858 123.746 13.081-.541-25.038-108.616c-.988-36.236-2.021-72.378-12.707-88.078l-3.737-11.347-29.898-9.187-4.111 11.347c-9.532 32.181-3.936 124.129-.376 208.039Z" fill="#2F2E41"/><path d="m389.296 231.886-10.465 41.071-18.975 39.041c-1.217.115-2.378.781-3.319 1.903-.94 1.122-1.613 2.644-1.922 4.35a11.963 11.963 0 0 0 .201 5.153c.44 1.645 1.227 3.048 2.249 4.01 1.022.962 2.227 1.435 3.445 1.351 1.219-.085 2.388-.721 3.341-1.82.954-1.098 1.645-2.603 1.974-4.301a11.976 11.976 0 0 0-.139-5.158l.438.317 24.293-35.66 14.202-47.014-15.323-3.243Z" fill="#FFB8B8"/><path d="M386.681 231.886c5.236 8.506 12.422 9.905 21.677 3.782v-29.179l-11.586-4.863-10.091 30.26Z" fill="#6C63FF"/><path d="M439.55 220.838c-1.861-3.366-4.458-5.679-6.976-7.982s-5.076-4.75-6.787-8.277c-2.731-5.63-2.861-13.034-2.454-19.884.408-6.85 1.242-13.848.087-20.518-1.527-8.824-6.584-15.968-12.558-18.817-5.975-2.849-12.694-1.633-18.314 2.454l1.545-2.108c-1.231.367-2.355 1.27-3.219 2.588-.865 1.319-1.43 2.989-1.618 4.785-.188 1.796.009 3.633.565 5.263.555 1.629 1.443 2.973 2.544 3.851 2.535 2.021 5.989 1.442 8.026 4.414 2.005 2.93 1.585 7.739.861 11.725-1.873 10.32-4.845 20.255-5.874 30.818-1.029 10.562.272 22.397 5.692 29.636 3.985 5.321 9.646 7.374 15.068 7.217 5.423-.157 10.714-2.302 15.931-4.436 3.66-1.495 7.79-3.569 9.223-8.665 1.123-3.987.119-8.699-1.742-12.064ZM386.999 495.231l-27.283-.001v-.499c.001-4.072 1.119-7.977 3.111-10.857 1.991-2.879 4.692-4.497 7.509-4.497l16.664.001-.001 15.853ZM450.241 493.707l-27.283-.001v-.499c0-4.072 1.119-7.977 3.111-10.857 1.991-2.879 4.692-4.496 7.508-4.497h.001l16.664.001-.001 15.853Z" fill="#2F2E41"/></svg>