<svg width="501" height="500" fill="none" xmlns="http://www.w3.org/2000/svg"><path d="M41.848 119.353h232.764v89.171h-8.817v23.321l-19.984-23.321H41.848v-89.171Z" fill="#E6E6E6"/><path d="M268.147 128.036H48.314v71.337h219.833v-71.337Z" fill="#fff"/><path d="M171.836 148.863H65.992v3.749h105.844v-3.749Z" fill="#6C63FF"/><path d="M250.469 161.83H65.992v3.749h184.477v-3.749ZM250.288 174.797H65.992v3.749h184.296v-3.749ZM233.467 238.704H.703v89.172H9.52v23.322l19.985-23.322h203.962v-89.172Z" fill="#E6E6E6"/><path d="M227.002 247.388H7.169v71.337h219.833v-71.337Z" fill="#fff"/><path d="M132.454 268.902H26.61v3.748h105.844v-3.748Z" fill="#6C63FF"/><path d="M211.087 281.869H26.61v3.748h184.477v-3.748ZM210.906 294.836H26.61v3.748h184.296v-3.748ZM233.467 0H.703v89.171H9.52v23.322l19.985-23.322h203.962V0Z" fill="#E6E6E6"/><path d="M227.002 8.684H7.169V80.02h219.833V8.684Z" fill="#fff"/><path d="M132.454 30.197H26.61v3.748h105.844v-3.748Z" fill="#6C63FF"/><path d="M211.087 43.164H26.61v3.748h184.477v-3.748ZM210.906 56.13H26.61v3.75h184.296v-3.75Z" fill="#E6E6E6"/><path d="m409.649 488.607-9.579-.001-4.558-43.122 14.139.001-.002 43.122Z" fill="#FFB8B8"/><path d="m412.093 499.444-30.891-.002v-.456c0-3.721 1.267-7.289 3.522-9.921 2.255-2.631 5.313-4.109 8.502-4.109l18.867.001v14.487Z" fill="#2F2E41"/><path d="m396.179 456.185-8.914 4.094-17.773-38.179 13.157-6.042 13.53 40.127Z" fill="#FFB8B8"/><path d="m401.854 465.225-28.745 13.2-.143-.424a16.2 16.2 0 0 1 .164-10.737c1.272-3.412 3.654-6.095 6.621-7.458h.001l17.556-8.062 4.546 13.481Z" fill="#2F2E41"/><path d="m393.26 474.595 3.05-130.825-13.574 56.083 9.808 38.915-16.271 16.14-16.587-61.755-.029-.109 16.485-101.687 48.757-2.752.349-.021.055.403c.047.338 4.655 34.101.78 58.517-3.859 24.324-13.186 127.504-13.28 128.544l-.04.444-19.503-1.897Z" fill="#2F2E41"/><path d="m378.668 299.514-.275-.129 9.048-96.866.264-.077c9.195-2.683 21.585-2.448 28.152-2.07.996.06 1.943.518 2.683 1.298.74.779 1.227 1.832 1.379 2.982l10.878 83.608-.089.15c-7.521 12.537-19.012 15.945-29.287 15.945-7.763-.116-15.454-1.753-22.753-4.841Z" fill="#6C63FF"/><path d="m421.756 327.814-.327-.035-5.778-127.658 17.56 4.629c1.918.513 3.605 1.84 4.731 3.723 1.127 1.883 1.613 4.188 1.365 6.466l-2.278 21.219.781 37.332c.543 2.293 9.435 40.278 4.495 50.176a4.534 4.534 0 0 1-1.016 1.454c-.421.398-.908.69-1.43.859a52.962 52.962 0 0 1-14.482 1.977c-2.217-.001-3.587-.139-3.621-.142ZM370.043 328.679a6.41 6.41 0 0 1-2.213-1.947 7.749 7.749 0 0 1-1.266-2.877c-1.145-5.376 2.718-12.137 3.276-13.075l4.672-51.799-6.95-47.851a7.106 7.106 0 0 1 .075-2.464 6.59 6.59 0 0 1 .905-2.227 5.574 5.574 0 0 1 1.585-1.628 4.727 4.727 0 0 1 2.009-.762l19.796-2.576-1.005 49.226c8.496 33.513-10.007 81.836-10.195 82.32l-.104.268h-.252c-.099 0-2.526-.052-10.333-4.608Z" fill="#3F3D56"/><path d="M410.721 188.897c9.3-5.933 12.719-19.542 7.634-30.396-5.084-10.853-16.745-14.842-26.046-8.909-9.301 5.933-12.719 19.542-7.635 30.396 5.084 10.853 16.746 14.842 26.047 8.909ZM423.491 304.711a9.946 9.946 0 0 1 .18-3.7 9.071 9.071 0 0 1 1.504-3.263 7.537 7.537 0 0 1 2.546-2.215 6.45 6.45 0 0 1 3.11-.75l6.643-17.936 10.325 2.052-9.686 25.177c-.146 2.097-.946 4.06-2.249 5.515-1.303 1.456-3.018 2.303-4.82 2.381-1.802.078-3.566-.618-4.958-1.956-1.392-1.338-2.315-3.226-2.595-5.305Z" fill="#FFB8B8"/><path d="m432.845 288.276 5.486-38.412-9.37-18.225 2.387-26.002.531-.155c1.777-.512 3.651-.296 5.308.613 1.656.909 2.994 2.455 3.79 4.378l15.307 37.28.061.148-11.118 50.971-12.382-10.596Z" fill="#3F3D56"/><path d="M414.094 187.305c.439.149 2.281-2.279 4.298-5.189 2.119-3.034 3.648-6.568 4.481-10.359a31.4 31.4 0 0 0 .263-12.088c-.668-3.71-3.7-7.127-6.878-6.341.24-3.287-1.657-6.382-4.061-8.116-2.404-1.735-5.252-2.378-8.029-2.99-3.169-.698-6.377-1.398-9.595-1.16-3.103.222-6.11 1.343-8.749 3.261-3.205 2.461-5.675 6.025-7.065 10.199-1.39 4.173-1.632 8.748-.692 13.089 4.044-5.358 8.836-11.187 15.762-8.865 1.568.545 3.032 1.438 4.31 2.631 4.209 3.858 6.326 9.54 8.373 15.092 1.022-3.038 4.816-4.182 6.971-2.101 1.384 1.336 1.953 3.556 1.901 5.651a23.72 23.72 0 0 1-1.229 6.093M411.619 270.98h-.903v-4.146c-.001-1.229-.42-2.407-1.165-3.276-.744-.87-1.754-1.358-2.807-1.36h-11.319c-1.054.002-2.063.49-2.808 1.36-.745.869-1.164 2.047-1.165 3.276v28.665c.001 1.229.42 2.407 1.165 3.276.745.869 1.754 1.358 2.808 1.359h11.319c1.053-.001 2.063-.49 2.807-1.359.745-.869 1.164-2.047 1.165-3.276v-19.602h.903v-4.917Z" fill="#2F2E41"/><path d="M401.385 278.707c1.33 0 2.408-1.258 2.408-2.81s-1.078-2.81-2.408-2.81c-1.33 0-2.408 1.258-2.408 2.81s1.078 2.81 2.408 2.81Z" fill="#fff"/><path d="M403.35 287.094a8.52 8.52 0 0 0-1.947-2.927 7.032 7.032 0 0 0-2.826-1.69 6.314 6.314 0 0 0-3.173-.137 6.83 6.83 0 0 0-2.925 1.443l-14.195-10.366-7.501 8.53 20.221 14.31c1.14 1.631 2.754 2.716 4.534 3.051 1.781.335 3.605-.103 5.126-1.233 1.522-1.129 2.636-2.871 3.131-4.895a9.916 9.916 0 0 0-.445-6.086Z" fill="#FFB8B8"/><path d="m352.583 267.348 12.988-57.259c.341-1.48 1.146-2.756 2.254-3.578 1.108-.822 2.44-1.13 3.733-.862l4.465.947 4.759 30.54-9.678 25.743 17.506 12.264-2.462 22.98-33.565-30.775ZM500.101 500H270.74a.562.562 0 0 1-.426-.206.765.765 0 0 1-.176-.497c0-.186.063-.365.176-.496a.562.562 0 0 1 .426-.206h229.361c.16 0 .313.074.426.206.113.131.176.31.176.496a.765.765 0 0 1-.176.497.562.562 0 0 1-.426.206Z" fill="#3F3D56"/></svg>