<svg width="4" height="16" fill="none" xmlns="http://www.w3.org/2000/svg"><path d="M2 16c-.55 0-1.02-.196-1.413-.588A1.926 1.926 0 0 1 0 14c0-.55.196-1.02.588-1.412A1.926 1.926 0 0 1 2 12c.55 0 1.02.196 1.413.588.391.391.587.862.587 1.412 0 .55-.196 1.02-.587 1.412A1.926 1.926 0 0 1 2 16Zm0-6c-.55 0-1.02-.196-1.413-.588A1.926 1.926 0 0 1 0 8c0-.55.196-1.02.588-1.412A1.926 1.926 0 0 1 2 6c.55 0 1.02.196 1.413.588C3.804 6.979 4 7.45 4 8c0 .55-.196 1.02-.587 1.412A1.926 1.926 0 0 1 2 10Zm0-6C1.45 4 .98 3.804.587 3.413A1.926 1.926 0 0 1 0 2C0 1.45.196.98.588.587A1.926 1.926 0 0 1 2 0c.55 0 1.02.196 1.413.588C3.804.979 4 1.45 4 2c0 .55-.196 1.02-.587 1.413A1.926 1.926 0 0 1 2 4Z" fill="#000"/></svg>