<svg width="101" height="34" viewBox="0 0 101 34" fill="none" xmlns="http://www.w3.org/2000/svg">
<path d="M7.424 10.952V19.528C7.424 20.1253 7.56267 20.5627 7.84 20.84C8.13867 21.096 8.62933 21.224 9.312 21.224H11.392V25H8.576C4.8 25 2.912 23.1653 2.912 19.496V10.952H0.8V7.272H2.912V2.888H7.424V7.272H11.392V10.952H7.424ZM13.4622 16.072C13.4622 14.28 13.8142 12.6907 14.5182 11.304C15.2436 9.91733 16.2143 8.85067 17.4303 8.104C18.6676 7.35733 20.0436 6.984 21.5583 6.984C22.8809 6.984 24.0329 7.25067 25.0143 7.784C26.0169 8.31733 26.8169 8.98933 27.4143 9.8V7.272H31.9263V25H27.4143V22.408C26.8383 23.24 26.0383 23.9333 25.0143 24.488C24.0116 25.0213 22.8489 25.288 21.5263 25.288C20.0329 25.288 18.6676 24.904 17.4303 24.136C16.2143 23.368 15.2436 22.2907 14.5182 20.904C13.8142 19.496 13.4622 17.8853 13.4622 16.072ZM27.4143 16.136C27.4143 15.048 27.2009 14.12 26.7743 13.352C26.3476 12.5627 25.7716 11.9653 25.0463 11.56C24.3209 11.1333 23.5423 10.92 22.7103 10.92C21.8783 10.92 21.1103 11.1227 20.4062 11.528C19.7023 11.9333 19.1263 12.5307 18.6783 13.32C18.2516 14.088 18.0383 15.0053 18.0383 16.072C18.0383 17.1387 18.2516 18.0773 18.6783 18.888C19.1263 19.6773 19.7023 20.2853 20.4062 20.712C21.1316 21.1387 21.8996 21.352 22.7103 21.352C23.5423 21.352 24.3209 21.1493 25.0463 20.744C25.7716 20.3173 26.3476 19.72 26.7743 18.952C27.2009 18.1627 27.4143 17.224 27.4143 16.136ZM40.7818 1.32V25H36.3018V1.32H40.7818ZM55.704 25L49.688 17.448V25H45.208V1.32H49.688V14.792L55.64 7.272H61.464L53.656 16.168L61.528 25H55.704Z" fill="black"/>
<path d="M72.0235 10.952H68.9195V25H64.3755V10.952H62.3595V7.272H64.3755V6.376C64.3755 4.2 64.9942 2.6 66.2315 1.576C67.4688 0.551999 69.3355 0.0719992 71.8315 0.136V3.912C70.7435 3.89067 69.9862 4.072 69.5595 4.456C69.1328 4.84 68.9195 5.53333 68.9195 6.536V7.272H72.0235V10.952ZM79.4068 1.32V25H74.9268V1.32H79.4068ZM100.793 7.272L89.817 33.384H85.049L88.889 24.552L81.785 7.272H86.809L91.385 19.656L96.025 7.272H100.793Z" fill="#6C63FF"/>
</svg>
